<?xml version="1.0" encoding="UTF-8" standalone="no"?>
<!-- Created with Inkscape (http://www.inkscape.org/) -->

<svg
   xmlns:dc="http://purl.org/dc/elements/1.1/"
   xmlns:cc="http://creativecommons.org/ns#"
   xmlns:rdf="http://www.w3.org/1999/02/22-rdf-syntax-ns#"
   xmlns:svg="http://www.w3.org/2000/svg"
   xmlns="http://www.w3.org/2000/svg"
   xmlns:sodipodi="http://sodipodi.sourceforge.net/DTD/sodipodi-0.dtd"
   xmlns:inkscape="http://www.inkscape.org/namespaces/inkscape"
   width="233.04195"
   height="114.46912"
   id="svg2"
   version="1.1"
   inkscape:version="0.91 r13725"
   sodipodi:docname="splash.svg">
  <defs
     id="defs4">
    <inkscape:perspective
       sodipodi:type="inkscape:persp3d"
       inkscape:vp_x="0 : 526.18109 : 1"
       inkscape:vp_y="0 : 1000 : 0"
       inkscape:vp_z="744.09448 : 526.18109 : 1"
       inkscape:persp3d-origin="372.04724 : 350.78739 : 1"
       id="perspective10" />
    <inkscape:perspective
       id="perspective2860"
       inkscape:persp3d-origin="15.316577 : 10.332809 : 1"
       inkscape:vp_z="30.633154 : 15.499213 : 1"
       inkscape:vp_y="0 : 1000 : 0"
       inkscape:vp_x="0 : 15.499213 : 1"
       sodipodi:type="inkscape:persp3d" />
    <inkscape:perspective
       id="perspective2985"
       inkscape:persp3d-origin="15.316577 : 10.332809 : 1"
       inkscape:vp_z="30.633154 : 15.499213 : 1"
       inkscape:vp_y="0 : 1000 : 0"
       inkscape:vp_x="0 : 15.499213 : 1"
       sodipodi:type="inkscape:persp3d" />
    <inkscape:perspective
       id="perspective3168"
       inkscape:persp3d-origin="16 : 10.666667 : 1"
       inkscape:vp_z="32 : 16 : 1"
       inkscape:vp_y="0 : 1000 : 0"
       inkscape:vp_x="0 : 16 : 1"
       sodipodi:type="inkscape:persp3d" />
    <inkscape:perspective
       id="perspective3220"
       inkscape:persp3d-origin="0.5 : 0.33333333 : 1"
       inkscape:vp_z="1 : 0.5 : 1"
       inkscape:vp_y="0 : 1000 : 0"
       inkscape:vp_x="0 : 0.5 : 1"
       sodipodi:type="inkscape:persp3d" />
  </defs>
  <sodipodi:namedview
     id="base"
     pagecolor="#f0f0f0"
     bordercolor="#666666"
     borderopacity="1.0"
     inkscape:pageopacity="1"
     inkscape:pageshadow="2"
     inkscape:zoom="3.9585238"
     inkscape:cx="111.84992"
     inkscape:cy="54.66962"
     inkscape:document-units="px"
     inkscape:current-layer="g4297"
     showgrid="false"
     units="px"
     showborder="true"
     inkscape:showpageshadow="false"
     inkscape:window-width="1920"
     inkscape:window-height="1137"
     inkscape:window-x="-8"
     inkscape:window-y="-8"
     inkscape:window-maximized="1"
     fit-margin-top="1"
     fit-margin-left="1"
     fit-margin-right="1"
     fit-margin-bottom="1" />
  <metadata
     id="metadata7">
    <rdf:RDF>
      <cc:Work
         rdf:about="">
        <dc:format>image/svg+xml</dc:format>
        <dc:type
           rdf:resource="http://purl.org/dc/dcmitype/StillImage" />
        <dc:title></dc:title>
      </cc:Work>
    </rdf:RDF>
  </metadata>
  <g
     inkscape:label="Ebene 1"
     inkscape:groupmode="layer"
     id="layer1"
     transform="translate(-138.97902,-845.12634)">
    <g
       id="g4297"
       transform="matrix(0.96059601,0,0,0.96059601,-6.874111,43.14128)">
      <g
         id="g4437"
         transform="matrix(0.83451377,0,0,0.83451377,42.594162,148.02165)">
        <flowRoot
           transform="matrix(0.531441,0,0,0.531441,125.14006,447.99551)"
           xml:space="preserve"
           id="flowRoot3246"
           style="font-style:normal;font-weight:normal;font-size:24px;line-height:125%;font-family:'Bitstream Vera Sans';letter-spacing:0px;word-spacing:0px;fill:#000000;fill-opacity:1;stroke:none;stroke-width:1px;stroke-linecap:butt;stroke-linejoin:miter;stroke-opacity:1"><flowRegion
             id="flowRegion3248"><rect
               id="rect3250"
               width="62.453014"
               height="27.8405"
               x="-94.055748"
               y="141.2339" /></flowRegion><flowPara
             id="flowPara3252" /></flowRoot>        <text
           xml:space="preserve"
           style="font-style:normal;font-variant:normal;font-weight:normal;font-stretch:normal;font-size:14.3460989px;line-height:125%;font-family:Arial;-inkscape-font-specification:Arial;letter-spacing:0px;word-spacing:0px;fill:#000000;fill-opacity:1;stroke:none;stroke-width:1px;stroke-linecap:butt;stroke-linejoin:miter;stroke-opacity:1"
           x="277.36063"
           y="845.00726"
           id="text3417"
           sodipodi:linespacing="125%"
           inkscape:export-xdpi="90"
           inkscape:export-ydpi="90"
           transform="scale(0.99980434,1.0001957)"><tspan
             sodipodi:role="line"
             id="tspan3419"
             x="277.36063"
             y="845.00726">InfoCABLE<tspan
   style="font-size:9.32496452px;baseline-shift:super"
   id="tspan3429">®</tspan></tspan><tspan
             sodipodi:role="line"
             x="277.36063"
             y="862.93988"
             id="tspan3421">InfoKALEIDOS<tspan
   style="font-size:9.32496452px;baseline-shift:super"
   id="tspan3431">®</tspan></tspan></text>
        <g
           id="g4189"
           transform="matrix(4.3826729,0,0,4.3843883,132.15233,824.31491)"
           inkscape:export-xdpi="90"
           inkscape:export-ydpi="90">
          <circle
             r="16"
             inkscape:export-ydpi="90"
             inkscape:export-xdpi="90"
             cy="16"
             cx="16"
             id="path4198"
             style="opacity:1;fill:#ffffff;fill-opacity:1;fill-rule:evenodd;stroke:none;stroke-width:2;stroke-linecap:butt;stroke-linejoin:miter;stroke-miterlimit:4;stroke-dasharray:none;stroke-dashoffset:0;stroke-opacity:1" />
          <path
             class="st0"
             d="M 8.8,4 C 11,2.7 13.5,1.9 16.2,2 20.4,2 24.1,3.9 26.6,6.9 L 27.6,6 C 24.8,2.8 20.7,0.7 16.1,0.6 13,0.6 10.1,1.5 7.7,3"
             id="path7"
             inkscape:connector-curvature="0"
             style="fill:#93c01f" />
          <path
             id="path4205_4_-4"
             class="st0"
             d="m 6.566142,8.098426 2.7,-3.9 c 0.1,-0.1 -0.1,-0.5 -0.3,-0.6 l -0.4,-0.4 0,0 -0.4,-0.4 c -0.2,-0.2 -0.5,-0.3 -0.7,-0.2 l -3.8,2.9 c -0.1,0.1 -0.1,0.3 0.1,0.5 l 1.1,1 0,0 1.1,1 c 0.2,0.2 0.5,0.2 0.6,0.1 l 0,0 z"
             inkscape:connector-curvature="0"
             style="fill:#93c01f" />
          <path
             id="path4227_6_-3"
             class="st0"
             d="m 6.066142,7.998426 -2.1,-2 -1.2,1.3 c -0.1,0.1 -0.1,0.4 0.1,0.5 l 1.5,1.4 c 0.2,0.2 0.4,0.2 0.5,0.1 l 1.2,-1.3 0,0 z"
             inkscape:connector-curvature="0"
             style="fill:#999999" />
          <path
             id="rect4231_4_-0"
             class="st1"
             d="m 6.166142,6.498426 -2.6,2.7 c 0,0 0,0 0,0 l -0.8,-0.8 c 0,0 0,0 0,0 l 2.6,-2.7 c 0,0 0,0 0,0 l 0.8,0.8 c 0,0 0,0 0,0 z"
             inkscape:connector-curvature="0"
             style="opacity:0.6;fill:#93c01f;enable-background:new" />
          <path
             class="st2"
             d="M 9.6,27.9 C 7.4,26.7 5.4,24.9 4.1,22.5 2,18.9 1.8,14.7 3.1,11 L 1.8,10.6 c -1.4,4 -1.1,8.6 1.1,12.6 1.5,2.7 3.7,4.7 6.3,6"
             id="path16"
             inkscape:connector-curvature="0"
             style="fill:#ffcb08" />
          <path
             id="path4205_3_-8"
             class="st2"
             d="m 14.266142,27.798426 -4.8,-0.4 c -0.2,0 -0.4,0.3 -0.4,0.6 l -0.1,0.5 0,0 -0.1,0.5 c -0.1,0.2 0,0.6 0.1,0.7 l 4.4,1.9 c 0.2,0 0.3,-0.1 0.4,-0.4 l 0.3,-1.4 0,0 0.3,-1.4 c 0.1,-0.3 0,-0.5 -0.1,-0.6 l 0,0 z"
             inkscape:connector-curvature="0"
             style="fill:#ffcb08" />
          <path
             id="path4227_3_-3"
             class="st2"
             d="m 14.364447,28.298426 -0.733898,2.9 1.835593,0.4 c 0.2,0 0.4,-0.1 0.4,-0.3 l 0.5,-2 c 0.1,-0.2 0,-0.5 -0.2,-0.5 -0.570679,-0.15236 -1.237319,-0.32573 -1.801695,-0.5 z"
             inkscape:connector-curvature="0"
             style="fill:#999999"
             sodipodi:nodetypes="ccccccc" />
          <path
             id="rect4231_3_-2"
             class="st3"
             d="m 13.166142,28.898426 3.7,0.9 c 0,0 0,0 0,0 l -0.3,1.1 c 0,0 0,0 0,0 l -3.7,-0.9 c 0,0 0,0 0,0 l 0.3,-1.1 c 0,0 0,0 0,0 z"
             inkscape:connector-curvature="0"
             style="opacity:0.6;fill:#ffcb08;enable-background:new" />
          <path
             class="st4"
             d="m 29.7,15.2 c 0.1,2.5 -0.4,5.1 -1.7,7.5 -2,3.7 -5.5,6.1 -9.3,6.9 l 0.3,1.3 c 4.2,-0.9 7.9,-3.5 10.2,-7.5 1.5,-2.7 2.1,-5.6 1.9,-8.5"
             id="path25"
             inkscape:connector-curvature="0"
             style="fill:#1d1d1b" />
          <path
             id="path4205_2_-8"
             class="st4"
             d="m 27.166142,11.298426 2.2,4.3 c 0,0.2 0.5,0.2 0.7,0.1 l 0.5,-0.2 0,0 0.5,-0.2 c 0.2,-0.1 0.6,-0.3 0.5,-0.5 l -0.7,-4.8 c 0,-0.2 -0.3,-0.2 -0.5,-0.1 l -1.4,0.4 0,0 -1.4,0.4 c -0.3,0.2 -0.4,0.4 -0.4,0.6 l 0,0 z"
             style="fill:#1d1d1b;fill-opacity:1"
             inkscape:connector-curvature="0" />
          <path
             id="path4227_2_-2"
             class="st4"
             d="m 27.466142,10.898426 2.8,-0.9 -0.5,-1.7 c -0.1,-0.2 -0.3,-0.3 -0.5,-0.2 l -1.9,0.6 c -0.2,0.1 -0.4,0.3 -0.3,0.4 l 0.4,1.8 0,0 z"
             inkscape:connector-curvature="0"
             style="fill:#999999" />
          <path
             id="rect4231_2_-7"
             class="st5"
             d="m 28.666142,11.598426 -1.1,-3.6 c 0,0 0,0 0,0 l 1.1,-0.4 c 0,0 0,0 0,0 l 1.1,3.6 c 0,0 0,0 0,0 l -1.1,0.4 c 0,0 0,0 0,0 z"
             inkscape:connector-curvature="0"
             style="opacity:0.6;fill:#1d1d1b;enable-background:new" />
          <g
             id="g32">
            <rect
               id="rect34"
               height="13.6"
               width="7.4000001"
               class="st4"
               y="7.5"
               x="10.3"
               style="fill:#1d1d1b" />
            <rect
               id="rect36"
               height="2"
               width="2.2"
               class="st6"
               y="8.5"
               x="11.2"
               style="fill:#ffffff" />
            <rect
               id="rect38"
               height="2"
               width="2.2"
               class="st6"
               y="8.5"
               x="14.5"
               style="fill:#ffffff" />
            <rect
               id="rect40"
               height="2"
               width="2.2"
               class="st6"
               y="11.7"
               x="11.2"
               style="fill:#ffffff" />
            <rect
               id="rect42"
               height="2"
               width="2.2"
               class="st6"
               y="11.7"
               x="14.5"
               style="fill:#ffffff" />
            <rect
               id="rect44"
               height="0.60000002"
               width="9.6000004"
               class="st4"
               y="20.5"
               x="9.1999998"
               style="fill:#1d1d1b" />
            <rect
               id="rect46"
               height="2"
               width="2.2"
               class="st6"
               y="14.9"
               x="11.2"
               style="fill:#ffffff" />
            <rect
               id="rect48"
               height="2"
               width="2.2"
               class="st6"
               y="14.9"
               x="14.5"
               style="fill:#ffffff" />
          </g>
          <g
             id="g54"
             style="display:inline">
            <path
               sodipodi:nodetypes="cssccsscc"
               class="st4"
               d="m 20.064424,17.252061 0,-1.815728 c 0,-1.904754 -1.620606,-1.895006 -1.620606,0.03558 l 0,1.756182 -2.439697,0 0,-1.795879 c 0,-4.915002 6.519849,-4.841057 6.519849,-0.05618 l 0,1.879395 z"
               id="path56"
               inkscape:connector-curvature="0"
               style="fill:#1d1d1b;stroke:#ffffff;stroke-width:1;stroke-miterlimit:4;stroke-dasharray:none;stroke-opacity:1" />
          </g>
          <path
             sodipodi:nodetypes="sssssssss"
             class="st4"
             d="m 16.3,24.3 c -1.235087,0.0062 -1.5,-0.97566 -1.5,-1.8 l 0,-3.6 c 0,-0.811204 0.428881,-1.8 1.7,-1.8 l 5.7,0 c 1.806766,0 1.8,0.741791 1.8,1.935593 l 0,3.29661 c 0,1.499814 -0.599622,1.931957 -1.655932,1.937289 z"
             id="path62"
             inkscape:connector-curvature="0"
             style="display:inline;fill:#1d1d1b;stroke:#ffffff;stroke-opacity:1" />
          <path
             class="st6"
             d="m 18.953397,21.917779 c 0.0026,0.333943 0.158314,0.375711 0.257627,0.369491 0.161318,-0.0101 0.380508,0.04733 0.380508,-0.319491 -0.0021,-0.413585 -0.003,-0.689569 -0.0042,-1.057628 0.448907,-0.161864 0.470691,-0.71727 0.247939,-0.96253 -0.334677,-0.368496 -0.820797,-0.342216 -1.091378,0.02955 -0.186971,0.256892 -0.185538,0.689744 0.214623,0.92871 -0.0095,0.28625 -0.0066,0.821479 -0.0051,1.011865 z"
             id="path64-8"
             inkscape:connector-curvature="0"
             style="display:inline;fill:#ffffff"
             sodipodi:nodetypes="csccsscsc" />
        </g>
        <text
           xml:space="preserve"
           style="font-style:normal;font-weight:normal;font-size:40px;line-height:125%;font-family:sans-serif;letter-spacing:0px;word-spacing:0px;fill:#000000;fill-opacity:1;stroke:none;stroke-width:1px;stroke-linecap:butt;stroke-linejoin:miter;stroke-opacity:1"
           x="278.56134"
           y="906.14551"
           id="text4281"
           sodipodi:linespacing="125%"><tspan
             sodipodi:role="line"
             id="tspan4283"
             x="278.56134"
             y="906.14551"
             style="font-size:6.50637722px">© GFaI e.V.</tspan><tspan
             sodipodi:role="line"
             x="278.56134"
             y="914.2785"
             id="tspan4285"
             style="font-size:6.50637722px">Gesellschaft zur Förderung </tspan><tspan
             id="tspan4343"
             sodipodi:role="line"
             x="278.56134"
             y="922.41144"
             style="font-size:6.50637722px">angewandter Informatik e.V.</tspan><tspan
             sodipodi:role="line"
             x="278.56134"
             y="930.54443"
             id="tspan4287"
             style="font-size:6.50637722px">Alle Rechte vorbehalten.</tspan><tspan
             sodipodi:role="line"
             x="278.56134"
             y="938.67737"
             id="tspan4289"
             style="font-size:6.50637722px" /><tspan
             sodipodi:role="line"
             x="278.56134"
             y="946.81036"
             id="tspan4291"
             style="font-size:6.50637722px">Kundendienst</tspan><tspan
             sodipodi:role="line"
             x="278.56134"
             y="954.94336"
             id="tspan4293"
             style="font-size:6.50637722px">F +49 30 81 45 63 616 | infocable@gfai.de</tspan><tspan
             sodipodi:role="line"
             x="278.56134"
             y="963.07629"
             id="tspan4295"
             style="font-size:6.50637722px" /></text>
      </g>
    </g>
  </g>
  <style
     id="style3099"
     type="text/css">
	.st0{fill:#93C01F;}
	.st1{opacity:0.6;fill:#93C01F;enable-background:new    ;}
	.st2{fill:#FFCB08;}
	.st3{opacity:0.6;fill:#FFCB08;enable-background:new    ;}
	.st4{fill:#1D1D1B;}
	.st5{opacity:0.6;fill:#1D1D1B;enable-background:new    ;}
	.st6{fill:#FFFFFF;}
</style>
</svg>
